<svg width="1168.848145" height="102.506836" viewBox="0 0 1168.85 102.507" fill="none" xmlns="http://www.w3.org/2000/svg" xmlns:xlink="http://www.w3.org/1999/xlink">
	<desc>
			Created with Pixso.
	</desc>
	<defs/>
	<path id="path" d="M13.77 80.76C-2.12 53.58 -13.18 -1.9 32.9 0.04L1118.61 41.82C1126.42 42.17 1146.13 42.66 1153.03 43.83C1164.98 49.17 1177.94 91.42 1159.98 91.54L87.73 101.61C60.83 101.95 33.1 108.41 13.77 80.76ZM1140.61 65.34C1131.09 63.88 1121.62 63.82 1112.18 63.48L445.9 37.7C424.2 36.84 397.35 36.68 375.79 34.61C377.48 43.55 379.23 52.56 380.73 61.5L383.39 75.48L1076.43 69.31C1092.82 69.3 1109.34 69.61 1125.68 69.33C1131.35 69.23 1143.23 71.72 1141.46 66.03L1140.61 65.34ZM351.3 34.25C336.94 32.86 317.32 32.76 302.63 32.27L74.47 23.35C61.34 22.94 37.8 20.98 26.88 24.14C18.92 26.45 30.68 65.86 33.8 72.64C43.41 84.24 62.88 80.06 76.24 79.81L359.91 75.82C358.94 70.66 353.04 37.11 351.3 34.25Z" fill="#000000" fill-opacity="1.000000" fill-rule="nonzero"/>
</svg>
