<svg width="193.357910" height="150.000000" viewBox="0 0 193.358 150" fill="none" xmlns="http://www.w3.org/2000/svg" xmlns:xlink="http://www.w3.org/1999/xlink">
	<desc>
			Created with Pixso.
	</desc>
	<defs/>
	<rect id="фрейм 1" width="193.357910" height="150.000000" fill="#FFFFFF" fill-opacity="0"/>
	<path id="path" d="M159.83 147.44C164.88 145.73 172.71 139.6 167.16 134.15L37.01 5.34C36.06 4.42 33.73 2.05 32.8 1.35C30.79 0.59 24.3 4.7 26.36 6.94L148.84 141.1C151.9 144.48 154.34 148.78 159.83 147.44ZM31.69 5.8C32.96 6.78 34.06 7.94 35.19 9.07L115.08 88.1C117.69 90.67 120.8 93.97 123.53 96.36C122.28 97.36 121.02 98.36 119.79 99.39L117.83 100.95L38.62 14.28C36.74 12.25 34.79 10.25 32.94 8.19C32.3 7.47 30.64 6.33 31.51 5.79L31.69 5.8ZM126.4 99.35C128.22 100.94 130.49 103.35 132.25 105.11L159.62 132.16C161.18 133.73 164.13 136.38 165.01 138.16C165.66 139.46 159.64 143.33 158.48 143.86C156 144.24 154.25 141.26 152.74 139.57L120.5 103.9C121.22 103.32 125.86 99.52 126.4 99.35Z" fill="#000000" fill-opacity="1.000000" fill-rule="nonzero"/>
	<path id="path" d="M33.51 147.44C28.47 145.73 20.64 139.6 26.19 134.15L156.34 5.34C157.28 4.42 159.61 2.05 160.55 1.35C162.56 0.59 169.04 4.7 166.99 6.94L44.51 141.1C41.45 144.48 39.01 148.78 33.51 147.44ZM161.66 5.8C160.39 6.78 159.29 7.94 158.16 9.07L78.27 88.1C75.66 90.67 72.55 93.97 69.82 96.36C71.07 97.36 72.33 98.36 73.56 99.39L75.52 100.95L154.72 14.28C156.61 12.25 158.56 10.25 160.41 8.19C161.05 7.47 162.71 6.33 161.84 5.79L161.66 5.8ZM66.95 99.35C65.13 100.94 62.85 103.35 61.1 105.11L33.73 132.16C32.17 133.73 29.22 136.38 28.34 138.16C27.69 139.46 33.71 143.33 34.87 143.86C37.34 144.24 39.1 141.26 40.61 139.57L72.85 103.9C72.13 103.33 67.49 99.52 66.95 99.35Z" fill="#000000" fill-opacity="1.000000" fill-rule="nonzero"/>
</svg>
